<svg width="40" height="47" viewBox="0 0 40 47" fill="none" xmlns="http://www.w3.org/2000/svg">
<path fill-rule="evenodd" clip-rule="evenodd" d="M20 0C8.97146 0 0 7.37902 0 16.45C0 22.043 3.4 26.9545 8.57143 29.939V35.25C8.57143 36.5425 9.85717 37.6 11.4286 37.6H28.5714C30.1429 37.6 31.4286 36.5425 31.4286 35.25V29.939C36.6 26.9545 40 22.043 40 16.45C40 7.37902 31.0286 0 20 0ZM11.4286 44.65C11.4286 45.9425 12.7143 47 14.2857 47H25.7143C27.2857 47 28.5714 45.9425 28.5714 44.65V42.3H11.4286V44.65ZM25.7143 27.495L28.1429 26.085C32 23.876 34.2857 20.2805 34.2857 16.45C34.2857 9.96398 27.8857 4.7 20 4.7C12.1143 4.7 5.71429 9.96398 5.71429 16.45C5.71429 20.2805 7.99997 23.876 11.8572 26.085L14.2857 27.495V32.9H25.7143V27.495Z" fill="white"/>
</svg>
